{"glyphs":{"S":{"x_min":48.78125,"x_max":841,"ha":907,"o":"m 48 322 l 240 341 q 310 197 257 243 q 452 151 363 151 q 595 192 547 151 q 644 287 644 233 q 623 348 644 323 q 553 391 603 372 q 395 434 518 403 q 173 532 237 474 q 84 732 84 614 q 126 874 84 808 q 248 975 168 940 q 440 1010 327 1010 q 717 926 624 1010 q 810 704 810 843 l 616 704 q 561 810 603 776 q 437 844 520 844 q 303 808 351 844 q 272 746 272 785 q 301 686 272 711 q 481 619 338 654 q 694 548 625 585 q 802 447 763 511 q 841 288 841 383 q 794 129 841 203 q 662 18 747 54 q 450 -18 577 -18 q 167 69 266 -18 q 48 322 68 156 "},"Ⱬ":{"x_min":14.953125,"x_max":807,"ha":832,"o":"m 807 -216 l 643 -216 l 643 0 l 14 0 l 14 180 l 526 826 l 73 826 l 73 994 l 786 994 l 786 838 l 252 167 l 807 167 l 807 -216 "},"/":{"x_min":-2,"x_max":379.484375,"ha":378,"o":"m -2 -17 l 239 1010 l 379 1010 l 135 -17 l -2 -17 "},"ⱡ":{"x_min":18,"x_max":364,"ha":379,"o":"m 364 307 l 285 307 l 285 0 l 98 0 l 98 307 l 18 307 l 18 434 l 98 434 l 98 560 l 18 560 l 18 687 l 98 687 l 98 994 l 285 994 l 285 687 l 364 687 l 364 560 l 285 560 l 285 434 l 364 434 l 364 307 "},"K":{"x_min":102,"x_max":980.890625,"ha":984,"o":"m 102 0 l 102 994 l 299 994 l 299 552 l 696 994 l 960 994 l 594 606 l 980 0 l 726 0 l 458 466 l 299 300 l 299 0 l 102 0 "},"7":{"x_min":58,"x_max":697,"ha":757,"o":"m 58 803 l 58 980 l 697 980 l 697 841 q 535 613 617 762 q 410 298 453 465 q 368 0 368 131 l 191 0 q 270 420 191 205 q 482 803 350 634 l 58 803 "},"d":{"x_min":56,"x_max":745,"ha":831,"o":"m 745 0 l 572 0 l 572 105 q 469 13 528 43 q 351 -16 411 -16 q 142 83 229 -16 q 56 362 56 183 q 140 640 56 545 q 353 736 224 736 q 558 635 472 736 l 558 994 l 745 994 l 745 0 m 247 375 q 278 208 247 260 q 404 134 323 134 q 514 189 468 134 q 559 356 559 245 q 515 535 559 480 q 403 590 471 590 q 291 536 336 590 q 247 375 247 482 "},",":{"x_min":78,"x_max":280,"ha":378,"o":"m 93 190 l 280 190 l 280 53 q 266 -76 280 -28 q 213 -162 252 -124 q 114 -221 174 -199 l 78 -143 q 158 -90 134 -124 q 183 0 183 -57 l 93 0 l 93 190 "},"Y":{"x_min":-1.90625,"x_max":909.234375,"ha":908,"o":"m 355 0 l 355 418 l -1 994 l 228 994 l 457 600 l 682 994 l 909 994 l 551 416 l 551 0 l 355 0 "},"E":{"x_min":99,"x_max":840.3125,"ha":908,"o":"m 99 0 l 99 994 l 821 994 l 821 826 l 296 826 l 296 605 l 785 605 l 785 438 l 296 438 l 296 167 l 840 167 l 840 0 l 99 0 "},"y":{"x_min":9.296875,"x_max":735.046875,"ha":757,"o":"m 9 720 l 208 720 l 376 209 l 541 720 l 735 720 l 485 27 l 441 -97 q 394 -194 416 -161 q 343 -248 372 -227 q 272 -280 314 -268 q 176 -292 229 -292 q 71 -280 122 -292 l 54 -131 q 133 -140 98 -140 q 229 -101 198 -140 q 277 -1 261 -62 l 9 720 "},"ⱥ":{"x_min":49,"x_max":711.53125,"ha":757,"o":"m 711 0 l 527 0 q 509 56 519 20 q 502 78 503 74 q 315 -14 418 -4 l 245 -273 l 140 -273 l 212 -8 q 112 44 152 4 q 49 196 49 104 q 158 378 49 325 q 306 422 206 402 l 329 427 l 373 590 l 363 590 q 282 570 310 590 q 238 499 255 550 l 68 531 q 180 693 99 645 q 374 735 249 735 q 412 735 396 735 l 486 1006 l 591 1006 l 515 721 q 560 705 543 714 q 655 608 631 670 q 669 468 669 565 q 669 458 669 463 l 669 236 q 669 224 669 230 q 678 96 669 143 q 711 0 687 50 m 488 469 l 488 488 q 470 556 488 533 l 442 453 q 488 469 470 462 m 488 307 l 488 345 q 407 323 460 336 l 351 120 q 431 146 394 120 q 480 213 468 173 q 488 307 488 238 m 293 294 q 272 283 280 288 q 236 216 236 257 q 256 156 236 182 l 293 294 "},"\"":{"x_min":74,"x_max":577,"ha":645,"o":"m 109 640 l 74 824 l 74 993 l 277 993 l 277 824 l 246 640 l 109 640 m 409 640 l 374 824 l 374 993 l 577 993 l 577 824 l 546 640 l 409 640 "},"ⱨ":{"x_min":97,"x_max":813,"ha":832,"o":"m 813 -190 l 662 -190 l 662 0 l 553 0 l 553 380 q 550 484 553 466 q 505 572 541 548 q 437 590 478 590 q 301 497 335 590 q 284 360 284 450 l 284 0 l 97 0 l 97 994 l 284 994 l 284 628 q 499 736 374 736 q 694 649 634 736 q 740 422 740 583 l 740 154 l 813 154 l 813 -190 "},"g":{"x_min":56,"x_max":745,"ha":832,"o":"m 80 -47 l 293 -73 q 318 -125 299 -111 q 402 -146 345 -146 q 512 -123 475 -146 q 549 -75 536 -108 q 558 11 558 -51 l 558 116 q 346 0 474 0 q 121 122 204 0 q 56 364 56 219 q 141 640 56 544 q 353 736 226 736 q 570 618 484 736 l 570 720 l 745 720 l 745 74 q 724 -116 745 -53 q 666 -215 703 -179 q 567 -271 629 -251 q 409 -292 505 -292 q 155 -229 230 -292 q 80 -70 80 -166 q 80 -47 80 -60 m 247 374 q 290 207 247 260 q 398 154 334 154 q 514 208 466 154 q 561 369 561 263 q 516 535 561 481 q 401 590 470 590 q 290 536 334 590 q 247 374 247 483 "},"ⱴ":{"x_min":26.4375,"x_max":740.328125,"ha":757,"o":"m 740 719 l 443 0 l 275 0 l 131 350 l 62 319 l 26 412 l 93 442 l 74 497 q 63 561 63 529 q 108 682 63 634 q 249 736 159 736 q 376 689 332 736 q 416 580 416 647 q 286 411 416 461 l 358 209 l 548 719 l 740 719 m 316 575 q 302 614 316 596 q 269 632 289 632 q 228 591 228 632 q 235 554 228 576 l 252 503 q 316 575 316 528 "},"e":{"x_min":43,"x_max":704,"ha":757,"o":"m 505 229 l 692 197 q 578 38 656 92 q 385 -16 501 -16 q 112 106 201 -16 q 43 354 43 204 q 134 634 43 533 q 365 736 225 736 q 613 629 522 736 q 704 305 704 523 l 235 305 q 278 173 235 220 q 386 126 321 126 q 460 150 430 126 q 505 229 490 174 m 515 422 q 475 547 515 504 q 378 590 435 590 q 276 544 316 590 q 237 422 237 499 l 515 422 "},"J":{"x_min":23,"x_max":646,"ha":756,"o":"m 450 993 l 646 993 l 646 364 q 624 174 646 241 q 521 35 596 88 q 322 -17 445 -17 q 100 65 178 -17 q 23 306 23 147 l 210 328 q 231 207 210 242 q 329 154 263 154 q 422 192 395 154 q 450 351 450 230 l 450 993 "},"|":{"x_min":117,"x_max":265,"ha":381,"o":"m 117 -292 l 117 1011 l 265 1011 l 265 -292 l 117 -292 "},"ⱬ":{"x_min":22.8125,"x_max":653,"ha":681,"o":"m 653 -189 l 502 -189 l 502 0 l 22 0 l 22 148 l 383 564 q 298 564 318 564 l 49 564 l 49 720 l 633 720 l 633 585 l 267 165 q 363 165 345 165 l 653 165 l 653 -189 "},"Ᵽ":{"x_min":-2,"x_max":846,"ha":908,"o":"m 846 688 q 730 436 846 518 q 628 389 679 400 q 424 375 560 375 l 296 375 l 296 0 l 99 0 l 99 618 l -2 618 l -2 744 l 99 744 l 99 994 l 414 994 q 649 979 593 994 q 797 870 744 953 q 846 688 846 793 m 643 685 q 613 773 643 737 q 532 819 583 809 q 391 826 496 826 l 296 826 l 296 744 l 471 744 l 471 618 l 296 618 l 296 544 l 403 544 q 522 550 490 544 q 621 608 590 562 q 643 685 643 640 "},"^":{"x_min":76.4375,"x_max":717.78125,"ha":795,"o":"m 76 469 l 326 1011 l 474 1011 l 717 469 l 529 469 l 397 800 l 266 469 l 76 469 "},"q":{"x_min":60,"x_max":745,"ha":831,"o":"m 558 -274 l 558 88 q 467 12 521 40 q 349 -16 412 -16 q 151 75 229 -16 q 60 367 60 183 q 146 638 60 541 q 359 736 232 736 q 481 705 430 736 q 573 613 533 675 l 573 720 l 745 720 l 745 -274 l 558 -274 m 564 368 q 520 533 564 479 q 409 587 476 587 q 296 532 341 587 q 251 357 251 477 q 294 186 251 239 q 403 134 338 134 q 515 193 467 134 q 564 368 564 252 "},"b":{"x_min":90,"x_max":779,"ha":832,"o":"m 90 0 l 90 994 l 276 994 l 276 635 q 481 736 362 736 q 694 640 610 736 q 779 367 779 545 q 692 83 779 183 q 483 -16 606 -16 q 364 14 423 -16 q 263 105 305 45 l 263 0 l 90 0 m 274 375 q 309 209 274 263 q 438 134 358 134 q 544 187 500 134 q 587 357 587 241 q 543 535 587 480 q 431 590 499 590 q 319 536 364 590 q 274 375 274 483 "},"D":{"x_min":98,"x_max":915,"ha":983,"o":"m 98 994 l 457 994 q 643 975 579 994 q 790 883 728 949 q 883 722 851 817 q 915 487 915 627 q 885 275 915 364 q 780 100 848 167 q 642 21 729 49 q 468 0 577 0 l 98 0 l 98 994 m 295 826 l 295 167 l 441 167 q 561 176 524 167 q 640 217 608 188 q 692 313 672 247 q 712 496 712 380 q 692 673 712 611 q 636 769 672 735 q 545 816 600 804 q 383 826 503 826 l 295 826 "},"ⱪ":{"x_min":91,"x_max":746,"ha":757,"o":"m 746 -190 l 595 -190 l 595 0 l 541 0 l 364 323 l 278 230 l 278 0 l 91 0 l 91 994 l 278 994 l 278 466 l 496 720 l 726 720 l 484 457 l 656 154 l 746 154 l 746 -190 "},"￼":{"x_min":0,"x_max":1361,"ha":1361,"o":"m 1361 778 l 1295 778 l 1295 930 l 1146 930 l 1146 998 l 1361 998 l 1361 778 m 979 930 l 764 930 l 764 998 l 979 998 l 979 930 m 1361 390 l 1295 390 l 1295 609 l 1361 609 l 1361 390 m 1184 414 q 1044 251 1184 251 q 952 281 987 251 l 1000 334 q 1043 317 1017 317 q 1107 411 1107 317 l 1107 738 l 1184 738 l 1184 414 m 597 930 l 382 930 l 382 998 l 597 998 l 597 930 m 1361 0 l 1146 0 l 1146 68 l 1295 68 l 1295 219 l 1361 219 l 1361 0 m 946 400 q 763 259 946 259 l 604 259 l 604 739 l 760 739 q 926 612 926 739 q 867 514 926 551 q 946 400 946 483 m 214 930 l 66 930 l 66 778 l 0 778 l 0 998 l 214 998 l 214 930 m 979 0 l 764 0 l 764 68 l 979 68 l 979 0 m 568 498 q 513 316 568 381 q 357 251 458 251 q 201 316 255 251 q 148 498 148 381 q 201 681 148 616 q 357 747 255 747 q 513 681 458 747 q 568 498 568 616 m 66 390 l 0 390 l 0 609 l 66 609 l 66 390 m 597 0 l 382 0 l 382 68 l 597 68 l 597 0 m 214 0 l 0 0 l 0 219 l 66 219 l 66 68 l 214 68 l 214 0 m 849 605 q 740 673 849 673 l 681 673 l 681 541 l 748 541 q 849 605 849 541 m 869 400 q 755 475 869 475 l 681 475 l 681 325 l 763 325 q 869 400 869 325 m 491 498 q 357 681 491 681 q 225 498 225 681 q 357 317 225 317 q 491 498 491 317 "},"z":{"x_min":23,"x_max":653,"ha":681,"o":"m 23 0 l 23 148 l 287 458 q 384 564 352 534 q 298 564 351 564 l 49 564 l 49 720 l 633 720 l 633 585 l 362 267 l 267 165 q 364 165 345 165 l 653 165 l 653 0 l 23 0 "},"ⱶ":{"x_min":90,"x_max":544.171875,"ha":593,"o":"m 544 302 l 277 302 l 277 0 l 90 0 l 90 720 l 277 720 l 277 456 l 544 456 l 544 302 "},"w":{"x_min":5.984375,"x_max":1058.046875,"ha":1059,"o":"m 229 0 l 5 720 l 187 720 l 319 248 l 441 720 l 621 720 l 739 248 l 873 720 l 1058 720 l 831 0 l 651 0 l 530 463 l 410 0 l 229 0 "},"$":{"x_min":46.40625,"x_max":696,"ha":756,"o":"m 325 146 l 325 430 q 133 545 194 468 q 73 732 73 622 q 141 918 73 843 q 325 1005 210 994 l 325 1073 l 421 1073 l 421 1005 q 588 932 526 993 q 668 770 651 871 l 500 747 q 421 856 485 827 l 421 591 q 638 477 580 547 q 696 297 696 407 q 623 90 696 174 q 421 -12 550 6 l 421 -139 l 325 -139 l 325 -15 q 138 71 209 -1 q 46 278 66 144 l 219 297 q 259 203 230 243 q 325 146 289 164 m 325 858 q 262 812 285 844 q 239 740 239 779 q 260 673 239 704 q 325 623 281 642 l 325 858 m 421 137 q 501 184 470 146 q 533 272 533 222 q 506 351 533 318 q 421 401 480 384 l 421 137 "},"\\":{"x_min":-2,"x_max":379.484375,"ha":378,"o":"m -2 1010 l 135 1010 l 379 -17 l 239 -17 l -2 1010 "},"~":{"x_min":45,"x_max":751,"ha":796,"o":"m 45 351 l 45 527 q 241 621 129 621 q 318 612 283 621 q 445 566 354 604 q 569 529 536 529 q 655 552 606 529 q 751 626 704 575 l 751 443 q 665 382 720 410 q 552 354 610 354 q 487 362 519 354 q 387 400 455 370 q 226 446 284 446 q 45 351 133 446 "},"-":{"x_min":76,"x_max":443,"ha":453,"o":"m 76 265 l 76 455 l 443 455 l 443 265 l 76 265 "},"Q":{"x_min":59,"x_max":1041.203125,"ha":1059,"o":"m 883 126 q 1041 42 956 73 l 968 -99 q 881 -62 924 -86 q 750 25 872 -57 q 538 -17 654 -17 q 186 117 313 -17 q 59 496 59 252 q 186 874 59 739 q 533 1010 314 1010 q 876 874 749 1010 q 1004 496 1004 739 q 968 270 1004 368 q 883 126 942 195 m 725 239 q 782 349 763 284 q 801 496 801 413 q 726 753 801 668 q 531 839 652 839 q 336 753 411 839 q 262 496 262 668 q 336 236 262 322 q 525 150 411 150 q 606 164 568 150 q 484 226 546 204 l 539 341 q 725 239 636 307 "},"M":{"x_min":96,"x_max":1037,"ha":1133,"o":"m 96 0 l 96 994 l 390 994 l 567 315 l 741 994 l 1037 994 l 1037 0 l 854 0 l 854 782 l 660 0 l 471 0 l 279 782 l 279 0 l 96 0 "},"C":{"x_min":64,"x_max":913,"ha":983,"o":"m 722 364 l 913 303 q 767 61 869 140 q 508 -17 665 -17 q 188 118 313 -17 q 64 487 64 253 q 189 872 64 735 q 520 1010 315 1010 q 810 902 698 1010 q 910 719 877 838 l 715 672 q 643 794 698 749 q 510 839 588 839 q 334 759 401 839 q 267 502 267 680 q 333 234 267 314 q 506 154 399 154 q 641 204 584 154 q 722 364 697 255 "},"[":{"x_min":97,"x_max":427.515625,"ha":453,"o":"m 97 -280 l 97 994 l 427 994 l 427 844 l 274 844 l 274 -130 l 427 -130 l 427 -280 l 97 -280 "},"Ⱨ":{"x_min":100,"x_max":958,"ha":983,"o":"m 958 -217 l 795 -217 l 795 0 l 682 0 l 682 434 l 297 434 l 297 0 l 100 0 l 100 994 l 297 994 l 297 602 l 682 602 l 682 994 l 879 994 l 879 167 l 958 167 l 958 -217 "},"L":{"x_min":104,"x_max":790.15625,"ha":831,"o":"m 104 0 l 104 985 l 301 985 l 301 167 l 790 167 l 790 0 l 104 0 "},"꜡":{"x_min":-231,"x_max":205.234375,"ha":1,"o":"m 205 0 l -231 0 l -231 234 l -153 234 l -153 79 l -32 79 l -32 234 l 46 234 l 46 79 l 205 79 l 205 0 "},"!":{"x_min":122,"x_max":324,"ha":453,"o":"m 170 256 l 122 759 l 122 993 l 324 993 l 324 759 l 276 256 l 170 256 m 130 0 l 130 190 l 317 190 l 317 0 l 130 0 "},"Ɫ":{"x_min":4,"x_max":810.5,"ha":832,"o":"m 810 0 l 131 0 l 131 469 q 90 408 90 469 l 4 408 q 121 581 4 581 l 131 581 l 131 985 l 328 985 l 328 522 l 333 522 q 386 581 379 522 l 470 581 q 354 411 470 411 q 328 412 339 411 l 328 167 l 810 167 l 810 0 "}," ":{"x_min":0,"x_max":0,"ha":378},"{":{"x_min":40,"x_max":495,"ha":530,"o":"m 40 276 l 40 442 q 113 454 88 442 q 156 495 138 466 q 180 568 174 524 q 186 682 186 601 q 197 865 186 813 q 241 948 209 917 q 332 998 272 980 q 459 1011 372 1011 l 495 1011 l 495 849 q 398 840 421 849 q 365 814 376 832 q 355 755 355 797 q 355 593 355 712 q 340 484 355 526 q 302 415 325 442 q 234 359 278 388 q 299 305 273 336 q 340 230 326 274 q 354 112 354 186 q 354 -30 354 0 q 365 -93 354 -75 q 400 -119 376 -110 q 495 -129 423 -129 l 495 -292 l 459 -292 q 322 -277 370 -292 q 241 -228 274 -262 q 197 -145 208 -194 q 186 11 186 -95 q 175 173 186 136 q 131 251 160 227 q 40 276 101 276 "},"X":{"x_min":0,"x_max":905.859375,"ha":908,"o":"m 0 0 l 332 518 l 31 994 l 261 994 l 456 674 l 647 994 l 875 994 l 572 511 l 905 0 l 668 0 l 452 343 l 235 0 l 0 0 "},"P":{"x_min":99,"x_max":845,"ha":907,"o":"m 99 0 l 99 994 l 414 994 q 648 979 593 994 q 788 881 732 956 q 845 688 845 806 q 812 534 845 596 q 729 436 779 471 q 627 389 679 400 q 423 375 557 375 l 296 375 l 296 0 l 99 0 m 296 826 l 296 544 l 403 544 q 558 559 519 544 q 619 608 597 575 q 642 685 642 641 q 610 775 642 739 q 531 819 579 810 q 390 826 496 826 l 296 826 "},"%":{"x_min":59,"x_max":1146,"ha":1210,"o":"m 59 748 q 116 945 59 881 q 272 1010 173 1010 q 431 946 374 1010 q 489 748 489 882 q 431 550 489 614 q 275 486 374 486 q 116 549 173 486 q 59 748 59 613 m 205 749 q 226 619 205 652 q 272 595 243 595 q 318 619 302 595 q 340 749 340 652 q 318 878 340 846 q 272 904 302 904 q 226 879 243 904 q 205 749 205 846 m 414 -37 l 276 -37 l 795 1010 l 929 1010 l 414 -37 m 716 222 q 773 420 716 356 q 930 485 830 485 q 1088 420 1031 485 q 1146 222 1146 356 q 1088 24 1146 88 q 932 -40 1031 -40 q 773 24 830 -40 q 716 222 716 88 m 862 223 q 883 94 862 126 q 929 69 900 69 q 975 93 959 69 q 997 223 997 126 q 975 353 997 320 q 929 378 959 378 q 883 353 899 378 q 862 223 862 320 "},"#":{"x_min":12,"x_max":741,"ha":757,"o":"m 102 247 l 12 247 l 12 396 l 131 396 l 171 596 l 12 596 l 12 746 l 201 746 l 253 1010 l 402 1010 l 350 746 l 497 746 l 548 1010 l 702 1010 l 649 746 l 741 746 l 741 596 l 619 596 l 579 396 l 741 396 l 741 247 l 549 247 l 497 -17 l 348 -17 l 400 247 l 252 247 l 200 -17 l 49 -17 l 102 247 m 321 596 l 281 396 l 429 396 l 467 596 l 321 596 "},"_":{"x_min":-13,"x_max":763,"ha":756,"o":"m -13 -274 l -13 -151 l 763 -151 l 763 -274 l -13 -274 "},"Ⱡ":{"x_min":11,"x_max":790.15625,"ha":831,"o":"m 790 0 l 104 0 l 104 308 l 11 308 l 11 434 l 104 434 l 104 560 l 11 560 l 11 686 l 104 686 l 104 985 l 301 985 l 301 686 l 530 686 l 530 560 l 301 560 l 301 434 l 530 434 l 530 308 l 301 308 l 301 167 l 790 167 l 790 0 "},"+":{"x_min":56,"x_max":737,"ha":794,"o":"m 311 143 l 311 401 l 56 401 l 56 579 l 311 579 l 311 838 l 481 838 l 481 579 l 737 579 l 737 401 l 481 401 l 481 143 l 311 143 "},"Ⱪ":{"x_min":102,"x_max":981,"ha":984,"o":"m 981 -217 l 817 -217 l 817 0 l 726 0 l 458 466 l 299 300 l 299 0 l 102 0 l 102 994 l 299 994 l 299 552 l 696 994 l 961 994 l 593 606 l 874 167 l 981 167 l 981 -217 "},")":{"x_min":44.15625,"x_max":382,"ha":452,"o":"m 45 -292 q 123 -106 100 -171 q 165 41 145 -42 q 193 201 184 125 q 203 356 203 276 q 169 661 203 517 q 44 1011 135 805 l 171 1011 q 326 701 271 865 q 382 370 382 538 q 338 66 382 228 q 174 -292 288 -115 l 45 -292 "},"'":{"x_min":61,"x_max":264,"ha":323,"o":"m 96 640 l 61 824 l 61 993 l 264 993 l 264 824 l 233 640 l 96 640 "},"}":{"x_min":30,"x_max":485,"ha":530,"o":"m 485 277 q 411 264 436 277 q 369 223 386 252 q 344 150 351 194 q 339 37 339 117 q 327 -146 339 -93 q 284 -229 315 -198 q 192 -279 253 -261 q 65 -292 152 -292 l 30 -292 l 30 -129 q 124 -119 101 -129 q 159 -93 148 -110 q 170 -34 170 -76 q 170 123 170 6 q 185 235 170 193 q 226 307 201 278 q 290 359 252 337 q 218 423 241 391 q 174 537 186 467 q 167 745 167 584 q 158 813 167 796 q 127 839 149 830 q 30 849 105 849 l 30 1011 l 65 1011 q 202 996 154 1011 q 283 948 250 982 q 327 864 315 914 q 339 707 339 814 q 349 544 339 583 q 393 465 363 489 q 485 442 423 442 l 485 277 "},"a":{"x_min":49,"x_max":711.859375,"ha":758,"o":"m 238 499 l 68 531 q 166 685 96 635 q 373 736 236 736 q 559 705 498 736 q 645 629 620 675 q 670 458 670 582 l 670 236 q 678 96 670 141 q 711 0 687 51 l 527 0 q 509 56 519 18 q 502 78 504 73 q 400 7 454 31 q 283 -16 345 -16 q 111 44 174 -16 q 49 196 49 104 q 77 305 49 257 q 157 378 106 352 q 306 422 209 403 q 488 469 437 447 l 488 488 q 461 566 488 543 q 361 590 434 590 q 283 570 311 590 q 238 499 255 550 m 488 345 q 374 316 452 333 q 272 283 296 299 q 236 216 236 256 q 265 147 236 176 q 339 118 294 118 q 436 151 390 118 q 480 214 470 177 q 488 307 488 239 l 488 345 "},"T":{"x_min":29,"x_max":803,"ha":831,"o":"m 318 0 l 318 825 l 29 825 l 29 993 l 803 993 l 803 825 l 515 825 l 515 0 l 318 0 "},"=":{"x_min":56,"x_max":737,"ha":794,"o":"m 56 553 l 56 728 l 737 728 l 737 553 l 56 553 m 56 252 l 56 428 l 737 428 l 737 252 l 56 252 "},"N":{"x_min":101,"x_max":874,"ha":983,"o":"m 101 0 l 101 994 l 292 994 l 691 330 l 691 994 l 874 994 l 874 0 l 676 0 l 284 648 l 284 0 l 101 0 "},"2":{"x_min":34.3125,"x_max":689,"ha":757,"o":"m 689 177 l 689 0 l 34 0 q 98 190 44 100 q 308 428 151 280 q 463 591 434 548 q 502 707 502 650 q 468 805 502 771 q 374 840 434 840 q 279 804 314 840 q 245 684 245 768 l 56 703 q 160 929 72 861 q 379 998 248 998 q 606 918 524 998 q 689 721 689 839 q 665 593 689 654 q 590 466 641 532 q 468 339 557 422 q 356 229 380 257 q 318 177 332 202 l 689 177 "},"j":{"x_min":-62.171875,"x_max":281,"ha":379,"o":"m 94 818 l 94 994 l 281 994 l 281 818 l 94 818 m 281 719 l 281 22 q 263 -171 281 -115 q 195 -260 245 -228 q 67 -292 145 -292 q 7 -286 39 -292 q -62 -271 -24 -281 l -29 -108 q -4 -113 -16 -111 q 16 -115 6 -115 q 63 -102 45 -115 q 88 -72 82 -89 q 94 33 94 -54 l 94 719 l 281 719 "},"Z":{"x_min":15,"x_max":807,"ha":832,"o":"m 15 0 l 15 180 l 526 826 l 73 826 l 73 994 l 786 994 l 786 838 l 252 167 l 807 167 l 807 0 l 15 0 "},"ⱷ":{"x_min":52,"x_max":923,"ha":974,"o":"m 923 377 q 833 122 923 234 q 486 -16 722 -16 q 300 7 373 -16 q 144 112 208 36 q 52 372 52 221 q 146 647 52 544 q 379 736 226 736 l 337 568 q 263 492 288 552 q 243 383 243 444 q 279 229 243 297 q 395 130 320 156 l 395 449 q 404 589 395 546 q 474 705 420 669 q 597 736 522 736 q 772 686 695 736 q 887 546 848 637 q 923 377 923 462 m 731 402 q 708 513 731 461 q 629 581 679 581 q 583 515 591 581 q 582 424 582 505 l 582 130 q 731 402 731 198 "},"u":{"x_min":94,"x_max":736,"ha":832,"o":"m 563 0 l 563 107 q 461 17 524 50 q 328 -16 398 -16 q 201 15 257 -16 q 119 105 144 47 q 94 264 94 162 l 94 719 l 281 719 l 281 389 q 291 203 281 237 q 328 148 301 168 q 398 129 356 129 q 483 155 445 129 q 535 222 521 182 q 549 416 549 261 l 549 720 l 736 720 l 736 0 l 563 0 "},"1":{"x_min":107.75,"x_max":536,"ha":757,"o":"m 536 0 l 349 0 l 349 717 q 107 573 246 620 l 107 746 q 266 839 180 770 q 384 998 352 907 l 536 998 l 536 0 "},"k":{"x_min":91,"x_max":743.875,"ha":757,"o":"m 91 0 l 91 994 l 278 994 l 278 466 l 496 720 l 726 720 l 485 456 l 743 0 l 542 0 l 365 323 l 278 230 l 278 0 l 91 0 "},"Ⱶ":{"x_min":100,"x_max":682.46875,"ha":737,"o":"m 682 434 l 297 434 l 297 0 l 100 0 l 100 994 l 297 994 l 297 602 l 682 602 l 682 434 "},"<":{"x_min":63,"x_max":731,"ha":795,"o":"m 731 113 l 63 409 l 63 573 l 731 868 l 731 675 l 265 493 l 731 304 l 731 113 "},"t":{"x_min":21,"x_max":437.28125,"ha":454,"o":"m 422 720 l 422 568 l 294 568 l 294 278 q 297 175 294 190 q 314 151 301 160 q 346 142 327 142 q 421 160 372 142 l 437 12 q 289 -16 372 -16 q 198 1 239 -16 q 139 46 158 18 q 112 120 120 73 q 107 254 107 153 l 107 568 l 21 568 l 21 720 l 107 720 l 107 863 l 294 974 l 294 720 l 422 720 "},"W":{"x_min":4.65625,"x_max":1283.359375,"ha":1285,"o":"m 237 0 l 4 994 l 206 994 l 352 311 l 531 994 l 764 994 l 935 299 l 1085 994 l 1283 994 l 1046 0 l 838 0 l 644 743 l 450 0 l 237 0 "},"꜠":{"x_min":-231,"x_max":205.234375,"ha":1,"o":"m 205 914 l 46 914 l 46 758 l -32 758 l -32 914 l -153 914 l -153 758 l -231 758 l -231 993 l 205 993 l 205 914 "},"v":{"x_min":7.3125,"x_max":740.375,"ha":757,"o":"m 291 0 l 7 720 l 203 720 l 336 352 l 374 229 q 394 291 390 276 q 414 352 403 322 l 548 720 l 740 720 l 459 0 l 291 0 "},">":{"x_min":63,"x_max":732,"ha":795,"o":"m 63 112 l 63 304 l 529 491 l 63 676 l 63 866 l 732 572 l 732 409 l 63 112 "},"s":{"x_min":32.078125,"x_max":691,"ha":757,"o":"m 32 205 l 219 234 q 267 150 231 179 q 370 122 304 122 q 479 149 442 122 q 504 199 504 168 q 490 235 504 221 q 428 260 476 249 q 141 353 201 311 q 58 515 58 411 q 130 672 58 608 q 354 736 202 736 q 570 687 499 736 q 667 545 640 639 l 491 512 q 448 576 480 554 q 358 599 416 599 q 252 578 284 599 q 231 539 231 563 q 249 504 231 519 q 424 451 274 486 q 632 366 573 417 q 691 225 691 316 q 609 55 691 126 q 370 -16 528 -16 q 142 43 226 -16 q 32 205 57 103 "},"B":{"x_min":100,"x_max":916,"ha":983,"o":"m 100 994 l 489 994 q 662 984 605 994 q 763 943 718 974 q 838 860 808 912 q 868 744 868 808 q 831 616 868 674 q 731 528 794 557 q 868 438 820 502 q 916 288 916 374 q 885 156 916 220 q 800 53 854 92 q 669 6 747 15 q 431 1 619 1 l 100 1 l 100 994 m 297 829 l 297 599 l 425 599 q 568 602 540 599 q 648 638 619 608 q 677 715 677 667 q 652 790 677 761 q 578 825 627 819 q 409 829 548 829 l 297 829 m 297 434 l 297 168 l 479 168 q 613 174 585 168 q 685 213 657 182 q 713 298 713 245 q 691 374 713 343 q 630 419 670 405 q 455 434 590 434 l 297 434 "},"?":{"x_min":74.25,"x_max":770,"ha":832,"o":"m 498 256 l 329 256 q 329 301 329 293 q 356 440 329 385 q 465 562 383 494 q 563 650 547 629 q 588 724 588 684 q 544 819 588 779 q 426 859 500 859 q 307 817 355 859 q 242 691 260 776 l 74 713 q 168 919 74 834 q 417 1004 263 1004 q 674 918 578 1004 q 770 718 770 832 q 735 599 770 655 q 586 446 700 543 q 512 365 526 396 q 498 256 498 335 m 330 0 l 330 190 l 517 190 l 517 0 l 330 0 "},"H":{"x_min":100,"x_max":879,"ha":983,"o":"m 100 0 l 100 994 l 297 994 l 297 602 l 682 602 l 682 994 l 879 994 l 879 0 l 682 0 l 682 434 l 297 434 l 297 0 l 100 0 "},"c":{"x_min":56,"x_max":721.859375,"ha":756,"o":"m 712 506 l 528 472 q 486 557 519 529 q 400 586 453 586 q 289 536 331 586 q 248 372 248 487 q 290 192 248 244 q 403 139 332 139 q 490 170 456 139 q 538 275 524 200 l 721 244 q 612 49 693 115 q 394 -16 531 -16 q 148 83 240 -16 q 56 359 56 183 q 148 636 56 537 q 398 736 240 736 q 603 679 527 736 q 712 506 679 622 "},"&":{"x_min":60,"x_max":960.921875,"ha":983,"o":"m 960 120 l 847 -26 q 688 87 764 15 q 562 7 629 33 q 404 -18 496 -18 q 131 86 222 -18 q 60 272 60 167 q 115 443 60 367 q 282 576 171 520 q 207 691 232 636 q 182 794 182 745 q 252 947 182 884 q 454 1010 323 1010 q 651 944 580 1010 q 723 783 723 878 q 687 669 723 723 q 545 546 652 614 l 681 364 q 722 477 705 407 l 891 438 q 847 304 865 346 q 807 233 828 261 q 888 167 838 203 q 960 120 937 132 m 452 661 l 503 700 q 559 787 559 744 q 532 850 559 824 q 459 876 505 876 q 389 853 414 876 q 364 800 364 830 q 406 715 364 765 l 452 661 m 379 454 q 283 374 315 421 q 251 278 251 327 q 290 177 251 216 q 396 139 330 139 q 481 156 440 139 q 569 214 521 174 l 379 454 "},"I":{"x_min":93,"x_max":290,"ha":378,"o":"m 93 0 l 93 994 l 290 994 l 290 0 l 93 0 "},"G":{"x_min":65,"x_max":976,"ha":1058,"o":"m 551 365 l 551 532 l 976 532 l 976 136 q 796 29 914 75 q 559 -17 679 -17 q 292 48 406 -17 q 122 235 179 113 q 65 499 65 356 q 128 775 65 655 q 315 960 192 896 q 548 1010 409 1010 q 832 932 730 1010 q 963 718 934 854 l 767 680 q 690 796 747 754 q 548 839 633 839 q 343 755 419 839 q 268 508 268 672 q 344 242 268 331 q 546 154 421 154 q 670 178 608 154 q 777 238 732 203 l 777 365 l 551 365 "},"(":{"x_min":71,"x_max":409.5,"ha":453,"o":"m 407 -292 l 279 -292 q 124 33 177 -135 q 71 360 71 202 q 136 731 71 556 q 281 1011 194 882 l 409 1011 q 284 661 318 805 q 250 356 250 517 q 270 128 250 244 q 325 -93 290 11 q 407 -292 349 -162 "},"`":{"x_min":27.90625,"x_max":328.984375,"ha":453,"o":"m 328 808 l 211 808 l 27 1011 l 237 1011 l 328 808 "},"U":{"x_min":98,"x_max":875,"ha":983,"o":"m 98 993 l 295 993 l 295 454 q 302 288 295 326 q 362 190 314 227 q 492 154 409 154 q 618 188 575 154 q 669 274 660 223 q 678 443 678 325 l 678 993 l 875 993 l 875 471 q 859 218 875 292 q 800 94 843 144 q 685 13 757 43 q 498 -17 613 -17 q 286 15 358 -17 q 172 101 214 48 q 117 211 130 153 q 98 463 98 296 l 98 993 "},"F":{"x_min":100,"x_max":768.203125,"ha":831,"o":"m 100 0 l 100 993 l 768 993 l 768 825 l 297 825 l 297 590 l 703 590 l 703 422 l 297 422 l 297 0 l 100 0 "},"r":{"x_min":90,"x_max":546.78125,"ha":530,"o":"m 276 0 l 90 0 l 90 720 l 263 720 l 263 617 q 343 713 307 690 q 423 736 378 736 q 546 700 487 736 l 488 533 q 401 565 441 565 q 334 542 362 565 q 291 463 307 520 q 276 222 276 405 l 276 0 "},":":{"x_min":134,"x_max":321,"ha":454,"o":"m 134 530 l 134 720 l 321 720 l 321 530 l 134 530 m 134 0 l 134 190 l 321 190 l 321 0 l 134 0 "},"x":{"x_min":7.96875,"x_max":744.359375,"ha":757,"o":"m 7 0 l 262 370 l 18 720 l 246 720 l 371 522 l 503 720 l 722 720 l 483 378 l 744 0 l 515 0 l 371 223 l 226 0 l 7 0 "},"*":{"x_min":18.21875,"x_max":499.765625,"ha":529,"o":"m 162 536 l 62 615 q 161 720 109 670 q 187 746 182 740 q 92 768 171 749 q 18 789 36 782 l 57 909 q 212 829 144 873 q 197 1010 197 940 l 315 1010 q 297 828 315 960 q 354 854 310 833 q 464 902 414 882 l 499 779 q 328 746 425 762 l 408 654 q 446 609 432 627 l 344 541 l 255 692 q 162 536 214 618 "},"ⱦ":{"x_min":-33.890625,"x_max":659.796875,"ha":453,"o":"m 659 1006 l 276 173 q 324 142 286 142 q 399 160 350 142 l 415 12 q 268 -16 350 -16 q 194 -5 228 -16 l 72 -273 l -33 -273 l 115 50 q 91 120 99 76 q 86 254 86 156 l 86 568 l 0 568 l 0 720 l 86 720 l 86 863 l 273 974 l 273 720 l 422 720 l 554 1006 l 659 1006 m 352 568 l 273 568 l 273 401 l 276 401 l 352 568 "},"V":{"x_min":-0.671875,"x_max":906.515625,"ha":908,"o":"m 347 0 l 0 994 l 212 994 l 459 258 l 697 994 l 906 994 l 557 0 l 347 0 "},"h":{"x_min":97,"x_max":740,"ha":832,"o":"m 284 994 l 284 628 q 499 736 374 736 q 616 711 564 736 q 694 649 668 687 q 730 565 720 611 q 740 422 740 519 l 740 0 l 553 0 l 553 380 q 542 523 553 493 q 504 572 531 554 q 437 590 477 590 q 354 566 390 590 q 300 497 317 543 q 284 360 284 451 l 284 0 l 97 0 l 97 994 l 284 994 "},"⸗":{"x_min":43,"x_max":410,"ha":453,"o":"m 410 169 l 43 33 l 43 224 l 410 359 l 410 169 m 410 495 l 43 359 l 43 550 l 410 685 l 410 495 "},"0":{"x_min":57,"x_max":690,"ha":757,"o":"m 373 998 q 594 894 515 998 q 690 490 690 772 q 594 84 690 208 q 373 -17 515 -17 q 144 94 231 -17 q 57 492 57 206 q 152 896 57 772 q 373 998 231 998 m 373 840 q 312 817 339 840 q 271 738 286 795 q 252 490 252 665 q 269 249 252 315 q 313 162 286 184 q 373 141 339 141 q 434 163 407 141 q 475 242 460 185 q 495 490 495 315 q 477 730 495 665 q 433 817 460 795 q 373 840 407 840 "},".":{"x_min":98,"x_max":285,"ha":379,"o":"m 98 0 l 98 190 l 285 190 l 285 0 l 98 0 "},"@":{"x_min":41,"x_max":1323.21875,"ha":1328,"o":"m 1181 13 l 1323 13 q 1119 -202 1256 -124 q 734 -292 961 -292 q 356 -216 515 -292 q 118 6 196 -140 q 41 327 41 153 q 129 682 41 517 q 371 928 217 846 q 722 1011 524 1011 q 1020 944 889 1011 q 1219 755 1150 878 q 1288 488 1288 633 q 1183 176 1288 315 q 847 0 1052 0 q 764 19 792 0 q 727 77 736 39 q 546 0 649 0 q 363 77 436 0 q 291 284 291 155 q 378 574 291 443 q 651 735 484 735 q 825 642 769 735 l 842 717 l 1017 717 l 917 231 q 908 171 908 185 q 915 146 908 154 q 934 138 923 138 q 1016 177 966 138 q 1126 315 1084 228 q 1168 495 1168 402 q 1049 773 1168 661 q 719 886 931 886 q 414 811 539 886 q 225 600 288 736 q 162 317 162 464 q 232 57 162 174 q 431 -113 303 -59 q 724 -167 559 -167 q 997 -122 882 -167 q 1181 13 1111 -77 m 463 291 q 497 164 463 205 q 581 124 531 124 q 652 142 619 124 q 702 185 678 156 q 763 306 738 226 q 789 454 789 385 q 754 571 789 530 q 666 613 719 613 q 560 567 609 613 q 487 439 512 522 q 463 291 463 355 "},"f":{"x_min":16,"x_max":493.1875,"ha":453,"o":"m 16 720 l 120 720 l 120 774 q 138 909 120 864 q 208 981 157 953 q 337 1010 259 1010 q 493 985 416 1010 l 467 853 q 382 864 423 864 q 324 844 342 864 q 307 770 307 825 l 307 720 l 446 720 l 446 570 l 307 570 l 307 0 l 120 0 l 120 570 l 16 570 l 16 720 "},";":{"x_min":112.71875,"x_max":315,"ha":453,"o":"m 128 530 l 128 720 l 315 720 l 315 530 l 128 530 m 128 190 l 315 190 l 315 53 q 301 -76 315 -28 q 248 -162 287 -124 q 149 -221 209 -199 l 112 -143 q 193 -90 169 -124 q 218 0 218 -56 l 128 0 l 128 190 "},"i":{"x_min":98,"x_max":285,"ha":379,"o":"m 98 817 l 98 993 l 285 993 l 285 817 l 98 817 m 98 0 l 98 720 l 285 720 l 285 0 l 98 0 "},"6":{"x_min":58,"x_max":709,"ha":758,"o":"m 691 750 l 510 729 q 474 813 503 786 q 400 841 446 841 q 298 786 340 841 q 257 561 257 732 q 425 645 321 645 q 625 554 542 645 q 709 319 709 463 q 621 75 709 167 q 395 -17 533 -17 q 153 99 248 -17 q 58 483 58 216 q 157 877 58 756 q 414 998 256 998 q 598 934 525 998 q 691 750 671 871 m 267 334 q 309 191 267 242 q 405 141 351 141 q 491 182 456 141 q 526 317 526 223 q 488 459 526 414 q 395 505 451 505 q 304 461 342 505 q 267 334 267 418 "},"A":{"x_min":0,"x_max":977.640625,"ha":983,"o":"m 977 0 l 763 0 l 678 226 l 289 226 l 208 0 l 0 0 l 379 993 l 587 993 l 977 0 m 615 393 l 481 761 l 349 393 l 615 393 "},"n":{"x_min":96,"x_max":739,"ha":831,"o":"m 739 0 l 552 0 l 552 367 q 540 517 552 483 q 501 571 528 552 q 436 590 474 590 q 349 562 387 590 q 296 491 310 535 q 282 325 282 446 l 282 0 l 96 0 l 96 720 l 269 720 l 269 613 q 501 736 361 736 q 614 713 563 736 q 692 655 665 690 q 728 575 718 620 q 739 447 739 530 l 739 0 "},"O":{"x_min":59,"x_max":1004,"ha":1059,"o":"m 59 490 q 103 745 59 642 q 194 881 136 821 q 320 970 251 941 q 530 1010 411 1010 q 874 873 745 1010 q 1004 495 1004 737 q 875 118 1004 254 q 532 -17 747 -17 q 187 118 315 -17 q 59 490 59 253 m 262 497 q 338 241 262 328 q 532 154 414 154 q 725 240 650 154 q 801 499 801 326 q 727 754 801 670 q 532 839 654 839 q 336 753 410 839 q 262 497 262 668 "},"3":{"x_min":50.953125,"x_max":698.40625,"ha":757,"o":"m 50 263 l 231 285 q 278 178 240 215 q 370 141 316 141 q 467 185 427 141 q 507 306 507 230 q 469 420 507 378 q 376 462 431 462 q 290 447 340 462 l 311 602 q 427 637 387 602 q 467 731 467 672 q 437 811 467 781 q 360 841 408 841 q 278 807 312 841 q 237 708 244 773 l 64 738 q 119 882 82 828 q 219 967 155 936 q 365 998 284 998 q 585 908 502 998 q 654 743 654 835 q 514 534 654 612 q 648 451 597 515 q 698 298 698 388 q 604 75 698 167 q 371 -17 510 -17 q 151 60 239 -17 q 50 263 64 138 "},"]":{"x_min":25.46875,"x_max":356,"ha":453,"o":"m 356 993 l 356 -280 l 25 -280 l 25 -130 l 179 -130 l 179 845 l 25 845 l 25 993 l 356 993 "},"m":{"x_min":84,"x_max":1122,"ha":1210,"o":"m 84 720 l 256 720 l 256 621 q 476 736 348 736 q 594 707 544 736 q 676 621 644 679 q 776 707 722 679 q 891 736 830 736 q 1022 703 968 736 q 1102 609 1076 671 q 1122 460 1122 563 l 1122 0 l 935 0 l 935 411 q 915 549 935 518 q 836 590 889 590 q 762 565 797 590 q 713 494 728 541 q 698 345 698 447 l 698 0 l 511 0 l 511 394 q 501 529 511 499 q 470 575 491 560 q 413 590 449 590 q 335 566 369 590 q 285 497 300 542 q 270 349 270 453 l 270 0 l 84 0 l 84 720 "},"9":{"x_min":43,"x_max":694,"ha":757,"o":"m 61 229 l 241 249 q 277 166 248 193 q 352 139 305 139 q 453 193 411 139 q 495 418 495 247 q 324 335 430 335 q 126 425 209 335 q 43 660 43 515 q 131 904 43 812 q 355 997 219 997 q 598 880 503 997 q 694 495 694 763 q 594 102 694 223 q 336 -18 495 -18 q 152 43 222 -18 q 61 229 81 105 m 484 645 q 442 788 484 737 q 346 839 401 839 q 260 797 294 839 q 226 661 226 755 q 263 519 226 564 q 356 475 300 475 q 447 518 410 475 q 484 645 484 561 "},"Ɽ":{"x_min":100,"x_max":976.09375,"ha":983,"o":"m 976 0 l 740 0 l 598 216 q 528 322 533 315 q 435 404 478 389 q 336 415 405 415 l 297 415 l 297 30 q 302 -66 297 -47 q 374 -115 316 -115 q 420 -108 390 -115 l 453 -271 q 323 -292 378 -292 q 127 -195 173 -292 q 100 22 100 -136 l 100 994 l 513 994 q 703 979 644 994 q 854 872 803 953 q 897 715 897 803 q 639 438 897 476 q 764 332 713 394 q 857 193 794 295 l 976 0 m 694 702 q 593 822 694 806 q 450 826 572 826 l 297 826 l 297 574 l 442 574 q 566 576 550 574 q 674 628 645 584 q 694 702 694 658 "},"l":{"x_min":98,"x_max":285,"ha":379,"o":"m 98 0 l 98 994 l 285 994 l 285 0 l 98 0 "},"8":{"x_min":55,"x_max":696,"ha":757,"o":"m 217 536 q 112 621 145 567 q 79 741 79 676 q 155 924 79 852 q 371 997 231 997 q 587 924 510 997 q 664 741 664 852 q 628 618 664 672 q 530 536 593 564 q 653 439 611 502 q 696 292 696 375 q 609 68 696 154 q 380 -18 523 -18 q 159 53 247 -18 q 55 283 55 137 q 94 431 55 364 q 217 536 133 499 m 256 727 q 287 638 256 670 q 371 607 319 607 q 457 639 425 607 q 489 728 489 671 q 457 813 489 781 q 373 846 425 846 q 287 813 319 846 q 256 727 256 781 m 239 302 q 278 179 239 223 q 377 135 318 135 q 473 177 435 135 q 511 300 511 219 q 472 412 511 370 q 374 455 433 455 q 272 406 306 455 q 239 302 239 358 "},"p":{"x_min":92,"x_max":780,"ha":831,"o":"m 92 720 l 266 720 l 266 614 q 357 702 299 668 q 485 736 415 736 q 694 637 608 736 q 780 364 780 539 q 693 83 780 183 q 484 -16 607 -16 q 378 7 426 -16 q 278 88 331 31 l 278 -274 l 92 -274 l 92 720 m 276 372 q 323 192 276 250 q 438 135 370 135 q 546 188 503 135 q 590 362 590 241 q 545 531 590 476 q 435 586 501 586 q 321 532 366 586 q 276 372 276 478 "},"4":{"x_min":25,"x_max":726,"ha":757,"o":"m 424 0 l 424 200 l 25 200 l 25 366 l 447 998 l 605 998 l 605 367 l 726 367 l 726 200 l 605 200 l 605 0 l 424 0 m 424 367 l 424 706 l 199 367 l 424 367 "},"R":{"x_min":100,"x_max":976.09375,"ha":983,"o":"m 100 0 l 100 994 l 514 994 q 741 967 670 994 q 854 871 811 940 q 897 715 897 803 q 832 530 897 603 q 639 438 767 457 q 744 355 703 400 q 857 194 786 310 l 976 0 l 740 0 l 598 216 q 494 362 522 332 q 435 403 466 392 q 336 415 404 415 l 297 415 l 297 0 l 100 0 m 297 574 l 442 574 q 618 586 583 574 q 674 628 654 598 q 694 702 694 658 q 667 783 694 752 q 593 822 641 814 q 450 826 569 826 l 297 826 l 297 574 "},"o":{"x_min":54,"x_max":782,"ha":831,"o":"m 54 370 q 99 553 54 465 q 229 689 145 642 q 417 736 313 736 q 679 630 577 736 q 782 362 782 524 q 678 91 782 198 q 418 -16 575 -16 q 233 28 321 -16 q 99 159 145 73 q 54 370 54 246 m 245 360 q 295 196 245 253 q 418 139 345 139 q 540 196 491 139 q 590 361 590 253 q 540 524 590 467 q 418 581 491 581 q 295 524 345 581 q 245 360 245 467 "},"5":{"x_min":60.78125,"x_max":716,"ha":757,"o":"m 60 255 l 246 274 q 294 172 254 210 q 384 135 333 135 q 483 183 442 135 q 524 329 524 232 q 483 467 524 421 q 379 513 443 513 q 234 440 298 513 l 83 462 l 179 980 l 673 980 l 673 802 l 320 802 l 291 633 q 418 665 353 665 q 629 572 543 665 q 716 333 716 480 q 646 114 716 210 q 382 -17 551 -17 q 162 56 247 -17 q 60 255 77 130 "}}}
